<?xml version="1.0" standalone="no"?>
<!DOCTYPE svg PUBLIC "-//W3C//DTD SVG 20010904//EN"
 "http://www.w3.org/TR/2001/REC-SVG-20010904/DTD/svg10.dtd">
<svg version="1.0" xmlns="http://www.w3.org/2000/svg"
 width="324.000000pt" height="324.000000pt" viewBox="0 0 324.000000 324.000000"
 preserveAspectRatio="xMidYMid meet">
<metadata>
Created by potrace 1.11, written by Peter Selinger 2001-2013
</metadata>
<g transform="translate(0.000000,324.000000) scale(0.100000,-0.100000)"
fill="#000000" stroke="none">
<path d="M2692 3088 l-2 -58 -50 0 -50 0 2 -757 3 -758 2 753 3 752 45 0 c53
0 58 7 52 76 l-3 49 -2 -57z"/>
<path d="M2780 2336 l0 -806 -50 0 -50 0 0 -52 0 -53 -1007 0 -1008 0 -3 -57
-3 -58 1016 0 1015 0 0 50 0 50 50 0 50 0 0 50 0 50 50 0 50 0 -2 813 -3 812
-52 3 -53 3 0 -805z"/>
<path d="M840 2991 c0 -39 -1 -40 -37 -44 l-38 -4 43 -1 42 -2 0 45 c0 25 -2
45 -5 45 -3 0 -5 -18 -5 -39z"/>
<path d="M745 2225 c0 -390 1 -552 2 -358 2 193 2 513 0 710 -1 197 -2 39 -2
-352z"/>
<path d="M972 2788 l1 -43 4 38 4 37 690 0 689 0 0 -540 0 -540 -690 0 -690 0
0 34 0 34 76 7 c42 4 239 4 438 0 199 -4 459 -4 579 0 l217 7 0 459 0 459
-665 0 -665 0 0 -437 c0 -241 3 -468 7 -505 l6 -68 698 0 699 0 0 550 0 550
-700 0 -700 0 2 -42z m290 -310 l3 -53 43 -3 42 -3 0 -145 0 -144 -42 0 -41 0
4 143 c3 78 3 123 1 100 l-3 -43 -55 0 -54 0 0 100 0 100 49 0 50 0 3 -52z
m508 -98 l0 -50 -150 0 -150 0 0 -53 0 -54 250 5 250 5 0 -157 0 -156 -173 0
c-96 0 -207 3 -248 6 l-74 6 3 99 3 99 -60 0 -61 0 0 150 0 150 205 0 205 0 0
-50z"/>
<path d="M1554 2075 c0 -77 2 -107 3 -67 2 40 2 103 0 140 -2 37 -3 4 -3 -73z"/>
<path d="M2973 1475 c0 -27 2 -38 4 -22 2 15 2 37 0 50 -2 12 -4 0 -4 -28z"/>
<path d="M3086 1443 c-3 -42 -6 -245 -6 -452 l0 -376 -47 0 -48 0 -3 -52 -3
-53 -96 0 -96 0 7 77 c3 42 6 197 6 344 l0 268 48 4 47 3 -52 2 -53 2 0 -300
0 -300 -55 0 -55 0 0 -55 0 -55 -45 0 -45 0 0 -50 0 -50 -55 0 -55 0 0 55 0
55 50 0 50 0 0 50 c0 57 5 55 -122 43 l-68 -6 2 -41 1 -41 4 38 c4 35 6 37 39
37 33 0 34 -1 34 -39 l0 -39 -92 -8 c-66 -6 -80 -10 -50 -12 42 -3 42 -3 42
-42 l0 -39 -47 -3 -48 -3 -3 -43 -3 -42 -95 0 -94 0 0 41 0 42 88 -5 c48 -3
70 -3 50 -1 l-38 4 0 55 0 54 50 0 50 0 0 50 0 50 -55 0 -55 0 0 -50 0 -50
-40 0 c-40 0 -40 0 -40 39 0 39 1 40 38 44 l37 4 -42 1 -41 2 -7 -95 -7 -95
-39 0 c-39 0 -39 0 -39 39 0 39 1 40 38 44 l37 4 -41 1 -42 2 -7 -90 -7 -90
-94 0 -94 0 0 41 0 41 88 -4 c48 -3 68 -3 44 -1 l-43 4 3 52 3 52 48 3 47 3 0
50 c0 56 4 54 -122 43 l-67 -7 -3 -46 -3 -46 -47 -3 -48 -3 2 -42 1 -42 4 38
c4 35 6 37 39 37 33 0 34 -1 34 -39 l0 -38 -67 -6 c-129 -13 -123 -15 -123 48
l0 55 50 0 50 0 0 51 0 50 -52 -3 -53 -3 -3 -46 -3 -47 -97 -9 c-64 -7 -81
-11 -49 -12 l47 -1 0 -39 0 -40 -47 -3 -48 -3 -3 -43 -3 -42 -92 -2 -92 -1
110 -6 c142 -8 1285 -5 1292 3 4 3 -37 6 -90 6 l-97 0 0 40 0 41 103 -3 102
-3 3 46 3 46 61 7 c33 3 74 6 89 6 l29 0 0 -95 0 -95 -50 0 -50 0 0 -49 0 -50
-52 -3 -53 -3 0 -46 0 -47 -74 -6 c-41 -3 -586 -6 -1213 -6 l-1138 0 0 -50 0
-50 1215 0 1215 0 0 50 0 50 50 0 50 0 0 50 0 50 50 0 50 0 0 49 0 50 53 3 52
3 3 53 3 53 47 -2 47 -3 3 52 3 52 50 0 49 0 0 50 0 50 50 0 50 0 0 455 0 455
-49 0 -48 0 -7 -77z m-1216 -893 l0 -40 -40 0 -40 0 0 40 0 40 40 0 40 0 0
-40z m-277 -157 l67 -6 0 -33 0 -34 -90 0 -90 0 0 40 c0 45 -3 44 113 33z"/>
<path d="M1213 1503 c251 -2 663 -2 915 0 251 1 45 2 -458 2 -503 0 -709 -1
-457 -2z"/>
<path d="M2870 1376 l0 -45 -47 -3 -48 -3 -3 -47 -3 -48 -1157 -3 -1157 -2
1163 -3 1162 -2 0 50 0 50 50 0 50 0 0 50 c0 28 -2 50 -5 50 -3 0 -5 -20 -5
-44z"/>
<path d="M3018 1403 c12 -2 30 -2 40 0 9 3 -1 5 -23 4 -22 0 -30 -2 -17 -4z"/>
<path d="M2892 1263 l1 -48 4 42 4 42 47 4 47 3 -52 2 -53 2 2 -47z"/>
<path d="M445 905 l0 -310 98 -1 97 0 -95 3 -95 4 -3 307 -2 307 0 -310z"/>
<path d="M1570 866 l0 -54 338 -4 c185 -1 412 -1 505 0 l167 4 0 54 0 54 -505
0 -505 0 0 -54z"/>
<path d="M760 760 l0 -50 100 0 100 0 0 50 0 50 -100 0 -100 0 0 -50z"/>
<path d="M2263 755 c0 -22 2 -30 4 -17 2 12 2 30 0 40 -3 9 -5 -1 -4 -23z"/>
<path d="M650 560 l0 -50 -50 0 -50 0 0 -49 0 -50 -47 -3 -48 -3 -3 -42 c-3
-43 -3 -43 -43 -43 -38 0 -39 1 -39 34 0 33 2 35 38 39 l37 4 -42 1 -43 2 0
-44 0 -43 78 -5 c42 -2 223 -4 402 -4 l325 1 3 49 3 48 87 -4 c48 -3 70 -3 50
-1 l-38 4 0 55 0 54 50 0 50 0 0 50 0 50 -55 0 -55 0 0 -50 0 -50 -40 0 c-40
0 -40 0 -40 39 0 39 1 40 38 44 l37 4 -42 1 -42 2 -3 -47 -3 -48 -47 -3 -48
-3 2 -42 1 -42 4 38 c4 36 5 37 44 37 39 0 39 0 39 -39 l0 -38 -77 -7 c-131
-11 -123 -14 -123 49 l0 55 50 0 50 0 0 50 c0 57 5 55 -122 43 l-68 -6 2 -41
1 -41 4 38 c4 35 6 37 39 37 33 0 34 -1 34 -39 l0 -39 -92 -8 c-66 -6 -80 -10
-50 -12 42 -3 42 -3 42 -42 l0 -39 -47 -3 -48 -3 -3 -42 -3 -43 -95 0 -94 0 0
41 0 42 88 -5 c48 -3 70 -3 50 -1 l-38 4 0 55 0 54 50 0 50 0 0 50 0 50 -55 0
-55 0 0 -50z m383 -170 c24 0 27 -4 27 -35 l0 -35 -95 0 -95 0 0 41 0 42 68
-6 c37 -4 79 -7 95 -7z"/>
<path d="M1498 593 c12 -2 30 -2 40 0 9 3 -1 5 -23 4 -22 0 -30 -2 -17 -4z"/>
<path d="M407 513 l52 -4 4 -42 4 -42 -1 45 -1 45 -55 1 -55 1 52 -4z"/>
<path d="M340 461 c0 -40 0 -40 -42 -44 l-43 -4 48 -1 47 -2 0 45 c0 25 -2 45
-5 45 -3 0 -5 -18 -5 -39z"/>
<path d="M183 313 c15 -2 37 -2 50 0 12 2 0 4 -28 4 -27 0 -38 -2 -22 -4z"/>
<path d="M2593 260 c0 -25 2 -35 4 -22 2 12 2 32 0 45 -2 12 -4 2 -4 -23z"/>
<path d="M2493 155 c0 -22 2 -30 4 -17 2 12 2 30 0 40 -3 9 -5 -1 -4 -23z"/>
</g>
</svg>
