<svg width="128" height="128" viewBox="0 0 128 128" fill="none" xmlns="http://www.w3.org/2000/svg">
<rect x="17" y="30" width="94" height="68" rx="3" fill="#E0E0E0" stroke="#444444" stroke-width="2"/>
<path d="M45.3909 45.4444L54.3094 47.8076L87.2211 80.7193C87.6116 81.1098 87.6116 81.743 87.2211 82.1335L80.8571 88.4975C80.4666 88.888 79.8335 88.888 79.4429 88.4975L46.5313 55.5858L44.1681 46.6672C43.9715 45.9255 44.6491 45.2479 45.3909 45.4444Z" fill="#E0E0E0" stroke="#444444" stroke-width="2"/>
<path d="M45.8554 51.3744L44.7947 46.0711L50.098 47.1317L45.8554 51.3744Z" fill="#444444"/>
<path d="M76.6145 85.669L84.3927 77.8909L87.2211 80.7193C87.6117 81.1098 87.6117 81.743 87.2211 82.1335L80.8572 88.4975C80.4666 88.888 79.8335 88.888 79.443 88.4975L76.6145 85.669Z" fill="#C4C4C4" stroke="#444444" stroke-width="2"/>
<mask id="path-6-outside-1" maskUnits="userSpaceOnUse" x="34.1716" y="33.5337" width="61.5183" height="61.5183" fill="black">
<rect fill="white" x="34.1716" y="33.5337" width="61.5183" height="61.5183"/>
<path fill-rule="evenodd" clip-rule="evenodd" d="M78.0122 42.019C73.9162 41.0267 69.4163 42.1296 66.2182 45.3277C62.4584 49.0875 61.5944 54.6466 63.6263 59.2333L44.0711 78.7886C43.29 79.5696 43.29 80.8359 44.0711 81.617L47.6066 85.1525C48.3876 85.9336 49.654 85.9336 50.435 85.1525L69.9903 65.5973C74.577 67.6292 80.136 66.7652 83.8959 63.0054C87.094 59.8073 88.1969 55.3074 87.2046 51.2114L79.2775 59.1385L73.416 55.8076L70.0851 49.9461L78.0122 42.019ZM47.253 81.9705C48.6199 83.3374 50.8359 83.3374 52.2028 81.9705C53.5696 80.6037 53.5696 78.3876 52.2028 77.0208C50.8359 75.654 48.6199 75.654 47.253 77.0208C45.8862 78.3876 45.8862 80.6037 47.253 81.9705Z"/>
</mask>
<path fill-rule="evenodd" clip-rule="evenodd" d="M78.0122 42.019C73.9162 41.0267 69.4163 42.1296 66.2182 45.3277C62.4584 49.0875 61.5944 54.6466 63.6263 59.2333L44.0711 78.7886C43.29 79.5696 43.29 80.8359 44.0711 81.617L47.6066 85.1525C48.3876 85.9336 49.654 85.9336 50.435 85.1525L69.9903 65.5973C74.577 67.6292 80.136 66.7652 83.8959 63.0054C87.094 59.8073 88.1969 55.3074 87.2046 51.2114L79.2775 59.1385L73.416 55.8076L70.0851 49.9461L78.0122 42.019ZM47.253 81.9705C48.6199 83.3374 50.8359 83.3374 52.2028 81.9705C53.5696 80.6037 53.5696 78.3876 52.2028 77.0208C50.8359 75.654 48.6199 75.654 47.253 77.0208C45.8862 78.3876 45.8862 80.6037 47.253 81.9705Z" fill="url(#paint0_linear)"/>
<path d="M78.0122 42.019L79.4264 43.4332L81.9455 40.9141L78.4831 40.0753L78.0122 42.019ZM63.6263 59.2333L65.0405 60.6475L66.0105 59.6775L65.4549 58.4233L63.6263 59.2333ZM69.9903 65.5973L70.8003 63.7687L69.5461 63.2131L68.576 64.1831L69.9903 65.5973ZM87.2046 51.2114L89.1483 50.7405L88.3095 47.278L85.7903 49.7972L87.2046 51.2114ZM79.2775 59.1385L78.2894 60.8773L79.6142 61.6302L80.6917 60.5527L79.2775 59.1385ZM73.416 55.8076L71.6771 56.7957L71.9491 57.2744L72.4279 57.5465L73.416 55.8076ZM70.0851 49.9461L68.6709 48.5318L67.5934 49.6093L68.3463 50.9342L70.0851 49.9461ZM67.6324 46.7419C70.3172 44.0572 74.0947 43.1278 77.5413 43.9628L78.4831 40.0753C73.7377 38.9256 68.5154 40.2021 64.804 43.9135L67.6324 46.7419ZM65.4549 58.4233C63.7467 54.5671 64.4764 49.8979 67.6324 46.7419L64.804 43.9135C60.4404 48.2771 59.4422 54.7261 61.7977 60.0434L65.4549 58.4233ZM45.4853 80.2028L65.0405 60.6475L62.2121 57.8191L42.6568 77.3744L45.4853 80.2028ZM45.4853 80.2028L42.6568 77.3744C41.0947 78.9364 41.0947 81.4691 42.6568 83.0312L45.4853 80.2028ZM49.0208 83.7383L45.4853 80.2028L42.6568 83.0312L46.1924 86.5667L49.0208 83.7383ZM49.0208 83.7383L46.1924 86.5667C47.7545 88.1288 50.2871 88.1288 51.8492 86.5667L49.0208 83.7383ZM68.576 64.1831L49.0208 83.7383L51.8492 86.5667L71.4045 67.0115L68.576 64.1831ZM82.4817 61.5912C79.3256 64.7472 74.6564 65.4769 70.8003 63.7687L69.1802 67.4259C74.4975 69.7814 80.9465 68.7832 85.3101 64.4196L82.4817 61.5912ZM85.2608 51.6823C86.0958 55.1289 85.1664 58.9064 82.4817 61.5912L85.3101 64.4196C89.0215 60.7082 90.298 55.4859 89.1483 50.7405L85.2608 51.6823ZM80.6917 60.5527L88.6188 52.6256L85.7903 49.7972L77.8633 57.7242L80.6917 60.5527ZM72.4279 57.5465L78.2894 60.8773L80.2656 57.3996L74.4041 54.0687L72.4279 57.5465ZM68.3463 50.9342L71.6771 56.7957L75.1548 54.8195L71.824 48.9579L68.3463 50.9342ZM76.598 40.6048L68.6709 48.5318L71.4993 51.3603L79.4264 43.4332L76.598 40.6048ZM50.7886 80.5563C50.2028 81.1421 49.253 81.1421 48.6672 80.5563L45.8388 83.3848C47.9867 85.5326 51.4691 85.5326 53.617 83.3848L50.7886 80.5563ZM50.7886 78.435C51.3744 79.0208 51.3744 79.9705 50.7886 80.5563L53.617 83.3848C55.7649 81.2369 55.7649 77.7545 53.617 75.6066L50.7886 78.435ZM48.6672 78.435C49.253 77.8492 50.2028 77.8492 50.7886 78.435L53.617 75.6066C51.4691 73.4587 47.9867 73.4587 45.8388 75.6066L48.6672 78.435ZM48.6672 80.5563C48.0815 79.9705 48.0815 79.0208 48.6672 78.435L45.8388 75.6066C43.6909 77.7545 43.6909 81.2369 45.8388 83.3848L48.6672 80.5563Z" fill="#444444" mask="url(#path-6-outside-1)"/>
<defs>
<linearGradient id="paint0_linear" x1="81.9013" y1="47.3223" x2="45.8388" y2="83.3848" gradientUnits="userSpaceOnUse">
<stop stop-color="#979797"/>
<stop offset="1" stop-color="#E2E2E2"/>
</linearGradient>
</defs>
</svg>
