<svg width="128" height="128" viewBox="0 0 128 128" fill="none" xmlns="http://www.w3.org/2000/svg">
<rect x="29" y="79" width="36" height="8" rx="2" fill="#F2F2F2" stroke="#828282" stroke-width="2" stroke-linecap="round" stroke-linejoin="round"/>
<rect x="29" y="63" width="36" height="2" rx="1" fill="#4F4F4F"/>
<rect x="29" y="67" width="36" height="2" rx="1" fill="#4F4F4F"/>
<rect x="29" y="71" width="20" height="2" rx="1" fill="#4F4F4F"/>
<rect x="36" y="91" width="22" height="2" rx="1" fill="#4F4F4F"/>
<rect x="74" y="64" width="24" height="24" rx="4" fill="#F2F2F2" stroke="#828282" stroke-width="2" stroke-linecap="round" stroke-linejoin="round" stroke-dasharray="5 5"/>
<rect x="78.3846" y="67" width="23.4977" height="1.95814" rx="0.97907" transform="rotate(45 78.3846 67)" fill="#BDBDBD"/>
<rect x="95" y="68.3846" width="23.4977" height="1.95814" rx="0.97907" transform="rotate(135 95 68.3846)" fill="#BDBDBD"/>
<path d="M83 95.5675V85.1948C83 84.337 84.009 83.8773 84.6562 84.4401L92.4822 91.2454C93.1801 91.8523 92.7509 93 91.826 93H91.1343C90.371 93 89.8891 93.8207 90.261 94.4872L91.9856 97.578C92.265 98.0789 92.0668 98.7117 91.5514 98.9636L90.2942 99.5782C89.8121 99.8138 89.2299 99.6269 88.975 99.1547L87.1042 95.6882C86.7852 95.0971 85.9858 94.9823 85.5133 95.4598L84.7109 96.2708C84.0824 96.906 83 96.461 83 95.5675Z" fill="white"/>
<path fill-rule="evenodd" clip-rule="evenodd" d="M84.6562 84.4402L84 85.1948V95.5675L84.8025 94.7565C85.7473 93.8015 87.3462 94.0311 87.9842 95.2133L89.855 98.6798L91.1123 98.0652L89.3878 94.9745C88.644 93.6414 89.6077 92 91.1343 92H91.826L84 85.1948L84.6562 84.4402ZM82 85.1948C82 83.4794 84.0179 82.5599 85.3124 83.6856L93.1384 90.4908C94.5342 91.7046 93.6758 94 91.826 94L91.1343 94L92.8588 97.0908C93.4178 98.0926 93.0213 99.3583 91.9906 99.8621L90.7333 100.477C89.7691 100.948 88.6047 100.574 88.095 99.6296L86.2242 96.1631L85.4217 96.9742C84.1649 98.2445 82 97.3545 82 95.5675V85.1948Z" fill="#4F4F4F"/>
<rect x="29" y="29" width="69" height="28" rx="2" fill="#F2F2F2" stroke="#4F4F4F" stroke-width="2" stroke-linecap="round" stroke-linejoin="round"/>
</svg>
