<?xml version="1.0" standalone="no"?>
<!DOCTYPE svg PUBLIC "-//W3C//DTD SVG 20010904//EN"
 "http://www.w3.org/TR/2001/REC-SVG-20010904/DTD/svg10.dtd">
<svg version="1.0" xmlns="http://www.w3.org/2000/svg"
 width="260.000000pt" height="260.000000pt" viewBox="0 0 260.000000 260.000000"
 preserveAspectRatio="xMidYMid meet">
<metadata>
Created by potrace 1.11, written by Peter Selinger 2001-2013
</metadata>
<g transform="translate(0.000000,260.000000) scale(0.100000,-0.100000)"
fill="#000000" stroke="none">
<path d="M260 1300 l0 -1040 1040 0 1040 0 0 1040 0 1040 -1040 0 -1040 0 0
-1040z m1840 240 l0 -560 -635 0 -635 0 0 -120 0 -120 635 0 635 0 0 -120 0
-120 -800 0 -800 0 0 340 0 340 355 0 355 0 0 120 0 120 -355 0 -355 0 0 340
0 340 800 0 800 0 0 -560z"/>
<path d="M830 1740 l0 -120 475 0 475 0 0 120 0 120 -475 0 -475 0 0 -120z"/>
</g>
</svg>
