<svg width="128" height="128" viewBox="0 0 128 128" fill="none" xmlns="http://www.w3.org/2000/svg">
<rect x="17" y="30" width="94" height="68" rx="3" fill="url(#paint0_linear)" stroke="#444444" stroke-width="2"/>
<path d="M18 33C18 31.8954 18.8954 31 20 31H108C109.105 31 110 31.8954 110 33V41H18V33Z" fill="#BDBDBD"/>
<circle cx="24" cy="36" r="2" fill="#F2F2F2" stroke="#444444" stroke-width="2"/>
<circle cx="32" cy="36" r="2" fill="#F2F2F2" stroke="#444444" stroke-width="2"/>
<circle cx="40" cy="36" r="2" fill="#F2F2F2" stroke="#444444" stroke-width="2"/>
<rect x="73" y="82" width="30" height="10" rx="1" fill="#BDBDBD" stroke="#444444" stroke-width="2"/>
<rect x="25" y="59" width="78" height="17" rx="1" fill="white" stroke="#444444" stroke-width="2"/>
<rect x="50" y="86" width="18" height="2" rx="1" fill="#444444"/>
<rect x="24" y="48" width="68" height="2" rx="1" fill="#444444"/>
<rect x="18" y="41" width="92" height="2" fill="#444444"/>
<rect x="24" y="52" width="33" height="2" rx="1" fill="#444444"/>
<rect x="78" y="86" width="20" height="2" rx="1" fill="#444444"/>
<defs>
<linearGradient id="paint0_linear" x1="64" y1="29" x2="64" y2="99" gradientUnits="userSpaceOnUse">
<stop stop-color="#FFFDFD"/>
<stop stop-color="#F2F2F2"/>
<stop offset="1" stop-color="#C4C4C4"/>
</linearGradient>
</defs>
</svg>
