<svg width="128" height="128" viewBox="0 0 128 128" fill="none" xmlns="http://www.w3.org/2000/svg">
<rect x="17" y="30" width="94" height="68" rx="3" fill="#E0E0E0" stroke="#444444" stroke-width="2"/>
<path d="M20 30H43V98H20C18.3431 98 17 96.6569 17 95V33C17 31.3431 18.3431 30 20 30Z" fill="#E0E0E0" stroke="#444444" stroke-width="2"/>
<path d="M24.6 36.2C24.1582 35.8686 23.5314 35.9582 23.2 36.4C22.8686 36.8418 22.9582 37.4686 23.4 37.8L24.6 36.2ZM23.4 42.2C22.9582 42.5314 22.8686 43.1582 23.2 43.6C23.5314 44.0418 24.1582 44.1314 24.6 43.8L23.4 42.2ZM23.4 37.8L26.3333 40L27.5333 38.4L24.6 36.2L23.4 37.8ZM26.3333 40L23.4 42.2L24.6 43.8L27.5333 41.6L26.3333 40ZM26.3333 40L26.3333 40L27.5333 41.6C28.6 40.8 28.6 39.2 27.5333 38.4L26.3333 40Z" fill="#444444"/>
<rect x="49" y="36" width="56" height="56" rx="1" fill="#444444" stroke="#444444" stroke-width="2"/>
<rect x="57" y="39" width="20" height="2" rx="1" fill="#E0E0E0"/>
<rect x="57" y="43" width="29" height="2" rx="1" fill="#E0E0E0"/>
<rect x="57" y="47" width="25" height="2" rx="1" fill="#E0E0E0"/>
<rect x="57" y="51" width="29" height="2" rx="1" fill="#E0E0E0"/>
<rect x="57" y="59" width="6" height="2" rx="1" fill="#E0E0E0"/>
<rect x="57" y="71" width="6" height="2" rx="1" fill="#E0E0E0"/>
<rect x="57" y="63" width="15" height="2" rx="1" fill="#E0E0E0"/>
<rect x="57" y="67" width="17" height="2" rx="1" fill="#E0E0E0"/>
<circle cx="53" cy="40" r="1" fill="#BDBDBD"/>
<circle cx="53" cy="44" r="1" fill="#BDBDBD"/>
<circle cx="53" cy="48" r="1" fill="#BDBDBD"/>
<circle cx="53" cy="52" r="1" fill="#BDBDBD"/>
<circle cx="53" cy="56" r="1" fill="#BDBDBD"/>
<circle cx="53" cy="60" r="1" fill="#BDBDBD"/>
<circle cx="53" cy="64" r="1" fill="#BDBDBD"/>
<circle cx="53" cy="68" r="1" fill="#BDBDBD"/>
<circle cx="53" cy="72" r="1" fill="#BDBDBD"/>
<circle cx="53" cy="76" r="1" fill="#BDBDBD"/>
<circle cx="53" cy="80" r="1" fill="#BDBDBD"/>
<circle cx="53" cy="84" r="1" fill="#BDBDBD"/>
<circle cx="53" cy="88" r="1" fill="#BDBDBD"/>
</svg>
