<svg width="128" height="128" viewBox="0 0 128 128" fill="none" xmlns="http://www.w3.org/2000/svg">
<path d="M90 41.5H88C86.8954 41.5 86 42.3954 86 43.5V63C86 64.1046 86.8954 65 88 65H90" stroke="#828282" stroke-width="2"/>
<rect x="25" y="38" width="28" height="28" rx="1" fill="#E0E0E0" stroke="#828282" stroke-width="2" stroke-linecap="round" stroke-linejoin="round"/>
<rect x="29" y="46" width="17" height="2" rx="1" fill="#444444"/>
<rect x="29" y="50" width="20" height="2" rx="1" fill="#444444"/>
<rect x="29" y="54" width="20" height="2" rx="1" fill="#444444"/>
<circle cx="64" cy="71" r="5" fill="#E0E0E0" stroke="#444444" stroke-width="2"/>
<path d="M54 88C54 83.0294 58.0294 79 63 79H65C69.9706 79 74 83.0294 74 88V89C74 89.5523 73.5523 90 73 90H55C54.4477 90 54 89.5523 54 89V88Z" fill="#E0E0E0" stroke="#444444" stroke-width="2"/>
<path d="M58 86C58 85.4477 58.4477 85 59 85C59.5523 85 60 85.4477 60 86V89H58V86Z" fill="#444444"/>
<path d="M68 86C68 85.4477 68.4477 85 69 85C69.5523 85 70 85.4477 70 86V89H68V86Z" fill="#444444"/>
<rect x="69" y="50" width="12" height="6" rx="1" fill="white" stroke="#828282" stroke-width="2"/>
<rect x="91" y="38" width="12" height="6" rx="1" fill="white" stroke="#828282" stroke-width="2"/>
<rect x="91" y="50" width="12" height="6" rx="1" fill="white" stroke="#828282" stroke-width="2"/>
<rect x="91" y="62" width="12" height="6" rx="1" fill="white" stroke="#828282" stroke-width="2"/>
<path d="M82 53H90" stroke="#828282" stroke-width="2"/>
</svg>
