<svg width="128" height="128" viewBox="0 0 128 128" fill="none" xmlns="http://www.w3.org/2000/svg">
<rect x="17" y="30" width="94" height="68" rx="3" fill="url(#paint0_linear)" stroke="#444444" stroke-width="2"/>
<rect x="20" y="33" width="88" height="2" rx="1" fill="#F2F2F2"/>
<rect x="20" y="37" width="88" height="2" rx="1" fill="#F2F2F2"/>
<rect x="20" y="41" width="88" height="2" rx="1" fill="#F2F2F2"/>
<rect x="20" y="45" width="88" height="2" rx="1" fill="#F2F2F2"/>
<rect x="20" y="49" width="88" height="2" rx="1" fill="#F2F2F2"/>
<rect x="20" y="53" width="88" height="2" rx="1" fill="#F2F2F2"/>
<rect x="20" y="57" width="88" height="2" rx="1" fill="#F2F2F2"/>
<rect x="20" y="61" width="88" height="2" rx="1" fill="#F2F2F2"/>
<rect x="20" y="65" width="88" height="2" rx="1" fill="#E0E0E0"/>
<rect x="20" y="69" width="88" height="2" rx="1" fill="#E0E0E0"/>
<rect x="20" y="73" width="88" height="2" rx="1" fill="#E0E0E0"/>
<rect x="20" y="77" width="88" height="2" rx="1" fill="#E0E0E0"/>
<rect x="20" y="81" width="88" height="2" rx="1" fill="#E0E0E0"/>
<rect x="20" y="85" width="88" height="2" rx="1" fill="#E0E0E0"/>
<rect x="20" y="89" width="88" height="2" rx="1" fill="#E0E0E0"/>
<rect x="20" y="93" width="88" height="2" rx="1" fill="#E0E0E0"/>
<path d="M85 41.5H83C81.8954 41.5 81 42.3954 81 43.5V63C81 64.1046 81.8954 65 83 65H85" stroke="#828282" stroke-width="2"/>
<rect x="25" y="38" width="28" height="28" rx="1" fill="url(#paint1_linear)" stroke="#828282" stroke-width="2" stroke-linecap="round" stroke-linejoin="round"/>
<rect x="29" y="46" width="17" height="2" rx="1" fill="#444444"/>
<rect x="29" y="50" width="20" height="2" rx="1" fill="#444444"/>
<rect x="29" y="54" width="20" height="2" rx="1" fill="#444444"/>
<circle cx="64" cy="71" r="5" fill="#E0E0E0" stroke="#444444" stroke-width="2"/>
<path d="M54 88C54 83.0294 58.0294 79 63 79H65C69.9706 79 74 83.0294 74 88V89C74 89.5523 73.5523 90 73 90H55C54.4477 90 54 89.5523 54 89V88Z" fill="#E0E0E0" stroke="#444444" stroke-width="2"/>
<path d="M58 86C58 85.4477 58.4477 85 59 85C59.5523 85 60 85.4477 60 86V89H58V86Z" fill="#444444"/>
<path d="M68 86C68 85.4477 68.4477 85 69 85C69.5523 85 70 85.4477 70 86V89H68V86Z" fill="#444444"/>
<rect x="64" y="50" width="12" height="6" rx="1" fill="#F2F2F2" stroke="#828282" stroke-width="2"/>
<rect x="86" y="38" width="12" height="6" rx="1" fill="#F2F2F2" stroke="#828282" stroke-width="2"/>
<rect x="86" y="50" width="12" height="6" rx="1" fill="#F2F2F2" stroke="#828282" stroke-width="2"/>
<rect x="86" y="62" width="12" height="6" rx="1" fill="#F2F2F2" stroke="#828282" stroke-width="2"/>
<path d="M77 53H85" stroke="#828282" stroke-width="2"/>
<defs>
<linearGradient id="paint0_linear" x1="64" y1="29" x2="64" y2="99" gradientUnits="userSpaceOnUse">
<stop stop-color="#DADADA"/>
<stop offset="1" stop-color="white"/>
</linearGradient>
<linearGradient id="paint1_linear" x1="39" y1="37" x2="39" y2="67" gradientUnits="userSpaceOnUse">
<stop stop-color="#D9D9D9"/>
<stop offset="1" stop-color="#C4C4C4"/>
</linearGradient>
</defs>
</svg>
