<svg fill="none" height="128" viewBox="0 0 128 128" width="128" xmlns="http://www.w3.org/2000/svg"><path d="m36 82 6-6m4 0 6 6m4 0 6-6m4 0 6 6m14-10 6-6m-16 16 6-6" stroke="#bdbdbd" stroke-width="2"/><circle cx="34" cy="84" fill="#e0e0e0" r="3" stroke="#444" stroke-width="2"/><circle cx="54" cy="84" fill="#e0e0e0" r="3" stroke="#444" stroke-width="2"/><circle cx="44" cy="74" fill="#e0e0e0" r="3" stroke="#444" stroke-width="2"/><circle cx="64" cy="74" fill="#e0e0e0" r="3" stroke="#444" stroke-width="2"/><circle cx="74" cy="84" fill="#e0e0e0" r="3" stroke="#444" stroke-width="2"/><circle cx="84" cy="74" fill="#e0e0e0" r="3" stroke="#444" stroke-width="2"/><circle cx="94" cy="64" fill="#e0e0e0" r="3" stroke="#444" stroke-width="2"/><g fill="#828282"><path d="m43 81c0-.5523.4477-1 1-1s1 .4477 1 1v1c0 .5523-.4477 1-1 1s-1-.4477-1-1z"/><path d="m63 81c0-.5523.4477-1 1-1s1 .4477 1 1v1c0 .5523-.4477 1-1 1s-1-.4477-1-1z"/><path d="m83 81c0-.5523.4477-1 1-1s1 .4477 1 1v1c0 .5523-.4477 1-1 1s-1-.4477-1-1z"/><path d="m93 81c0-.5523.4477-1 1-1s1 .4477 1 1v1c0 .5523-.4477 1-1 1s-1-.4477-1-1z"/><path d="m93 71c0-.5523.4477-1 1-1s1 .4477 1 1v1c0 .5523-.4477 1-1 1s-1-.4477-1-1z"/><rect height="3" rx="1" width="2" x="43" y="85"/><rect height="3" rx="1" width="2" x="63" y="85"/><rect height="3" rx="1" width="2" x="83" y="85"/><rect height="3" rx="1" width="2" x="93" y="85"/><rect height="3" rx="1" width="2" x="93" y="75"/></g><path d="m26.2929 69.2929c-.3905.3905-.3905 1.0237 0 1.4142s1.0237.3905 1.4142 0zm46.3-5.9111-.7546.6562zm-10.1021-8.1462-.7546-.6562zm-17.5796-.19.7385-.6742zm-17.2041 15.6615 15.0201-15.02-1.4143-1.4143-15.02 15.0201zm16.4656-14.9872 7.5754 8.2968 1.477-1.3485-7.5754-8.2968zm12.0547 8.2426 7.018-8.0707-1.5092-1.3124-7.018 8.0707zm8.5272-8.0707 7.0837 8.1462 1.5092-1.3124-7.0837-8.1462zm11.4688 8.299 21.9837-21.9837-1.4142-1.4142-21.9837 21.9837zm-4.3851-.1528c1.1411 1.3123 3.1554 1.3825 4.3851.1528l-1.4142-1.4142c-.4099.4099-1.0813.3865-1.4617-.051zm-8.5929-8.1462c.3986-.4585 1.1106-.4585 1.5092 0l1.5092-1.3124c-1.1959-1.3753-3.3317-1.3753-4.5276 0zm-11.4973 8.1249c1.2092 1.3244 3.3025 1.299 4.4793-.0542l-1.5092-1.3124c-.3923.4511-1.09.4596-1.4931.0181zm-9.0209-8.3296c.4031-.4032 1.0611-.3882 1.4455.0328l1.477-1.3485c-1.1532-1.2631-3.1274-1.3079-4.3368-.0986z" fill="#444"/><path d="m98 50v-9h-9" stroke="#444" stroke-linecap="round" stroke-width="2"/></svg>