<svg width="128" height="128" viewBox="0 0 128 128" fill="none" xmlns="http://www.w3.org/2000/svg">
<rect x="17" y="30" width="94" height="68" rx="3" fill="#E0E0E0" stroke="#444444" stroke-width="2"/>
<path fill-rule="evenodd" clip-rule="evenodd" d="M20 32C20 31.4477 19.5523 31 19 31C18.4477 31 18 31.4477 18 32V39V49V59V69V79V89L18 96C18 96.5523 18.4477 97 19 97C19.5523 97 20 96.5523 20 96V90H28V96C28 96.5523 28.4477 97 29 97C29.5523 97 30 96.5523 30 96V90H38V96C38 96.5523 38.4477 97 39 97C39.5523 97 40 96.5523 40 96V90H48V96C48 96.5523 48.4477 97 49 97C49.5523 97 50 96.5523 50 96V90H58V96C58 96.5523 58.4477 97 59 97C59.5523 97 60 96.5523 60 96V90H68V96C68 96.5523 68.4477 97 69 97C69.5523 97 70 96.5523 70 96V90H78V96C78 96.5523 78.4477 97 79 97C79.5523 97 80 96.5523 80 96V90H88V96C88 96.5523 88.4477 97 89 97C89.5523 97 90 96.5523 90 96V90H98V96C98 96.5523 98.4477 97 99 97C99.5523 97 100 96.5523 100 96V90H108V96C108 96.5523 108.448 97 109 97C109.552 97 110 96.5523 110 96V89V79V69V59V49V39V32C110 31.4477 109.552 31 109 31C108.448 31 108 31.4477 108 32V38H100V32C100 31.4477 99.5523 31 99 31C98.4477 31 98 31.4477 98 32V38H90V32C90 31.4477 89.5523 31 89 31C88.4477 31 88 31.4477 88 32V38H80V32C80 31.4477 79.5523 31 79 31C78.4477 31 78 31.4477 78 32V38H70V32C70 31.4477 69.5523 31 69 31C68.4477 31 68 31.4477 68 32V38H60V32C60 31.4477 59.5523 31 59 31C58.4477 31 58 31.4477 58 32V38H50V32C50 31.4477 49.5523 31 49 31C48.4477 31 48 31.4477 48 32V38H40V32C40 31.4477 39.5523 31 39 31C38.4477 31 38 31.4477 38 32V38H30V32C30 31.4477 29.5523 31 29 31C28.4477 31 28 31.4477 28 32V38H20V32ZM20 40V48H28V40H20ZM20 50V58H28V50H20ZM20 60L20 68H28L28 60H20ZM20 70V78H28V70H20ZM20 80V88H28V80H20ZM38 88H30V80H38V88ZM38 78H30V70H38V78ZM38 68H30L30 60H38L38 68ZM38 58H30V50H38V58ZM38 48H30V40H38V48ZM40 40V48H48V40H40ZM40 50V58H48V50H40ZM40 60L40 68H48L48 60H40ZM40 70V78H48V70H40ZM40 80V88H48V80H40ZM58 88H50V80H58V88ZM58 78H50V70H58V78ZM58 68H50L50 60H58L58 68ZM58 58H50V50H58V58ZM58 48H50V40H58V48ZM60 40V48H68V40H60ZM60 50V58H68V50H60ZM60 60L60 68H68V60H60ZM60 70V78H68V70H60ZM60 80V88H68V80H60ZM78 88H70V80H78V88ZM78 78H70V70H78V78ZM78 68H70V60H78V68ZM78 58H70V50H78V58ZM78 48H70V40H78V48ZM100 88H108V80H100V88ZM98 80V88H90V80H98ZM100 78H108V70H100V78ZM98 70V78H90V70H98ZM100 68H108V60H100V68ZM98 60V68H90V60H98ZM100 58H108V50H100V58ZM98 50V58H90V50H98ZM100 48H108V40H100V48ZM98 40V48H90V40H98ZM88 88H80V80H88V88ZM88 78H80V70H88V78ZM88 68H80V60H88V68ZM88 58H80V50H88V58ZM88 48H80V40H88V48Z" fill="#F2F2F2"/>
<path d="M36 82L42 76M46 76L52 82M56 82L62 76M66 76L72 82M86 72L92 66M76 82L82 76" stroke="#BDBDBD" stroke-width="2"/>
<circle cx="34" cy="84" r="3" fill="#E0E0E0" stroke="#444444" stroke-width="2"/>
<circle cx="54" cy="84" r="3" fill="#E0E0E0" stroke="#444444" stroke-width="2"/>
<circle cx="44" cy="74" r="3" fill="#E0E0E0" stroke="#444444" stroke-width="2"/>
<circle cx="64" cy="74" r="3" fill="#E0E0E0" stroke="#444444" stroke-width="2"/>
<circle cx="74" cy="84" r="3" fill="#E0E0E0" stroke="#444444" stroke-width="2"/>
<circle cx="84" cy="74" r="3" fill="#E0E0E0" stroke="#444444" stroke-width="2"/>
<circle cx="94" cy="64" r="3" fill="#E0E0E0" stroke="#444444" stroke-width="2"/>
<path d="M43 81C43 80.4477 43.4477 80 44 80C44.5523 80 45 80.4477 45 81V82C45 82.5523 44.5523 83 44 83C43.4477 83 43 82.5523 43 82V81Z" fill="#828282"/>
<path d="M63 81C63 80.4477 63.4477 80 64 80C64.5523 80 65 80.4477 65 81V82C65 82.5523 64.5523 83 64 83C63.4477 83 63 82.5523 63 82V81Z" fill="#828282"/>
<path d="M83 81C83 80.4477 83.4477 80 84 80C84.5523 80 85 80.4477 85 81V82C85 82.5523 84.5523 83 84 83C83.4477 83 83 82.5523 83 82V81Z" fill="#828282"/>
<path d="M93 81C93 80.4477 93.4477 80 94 80C94.5523 80 95 80.4477 95 81V82C95 82.5523 94.5523 83 94 83C93.4477 83 93 82.5523 93 82V81Z" fill="#828282"/>
<path d="M93 71C93 70.4477 93.4477 70 94 70C94.5523 70 95 70.4477 95 71V72C95 72.5523 94.5523 73 94 73C93.4477 73 93 72.5523 93 72V71Z" fill="#828282"/>
<rect x="43" y="85" width="2" height="3" rx="1" fill="#828282"/>
<rect x="63" y="85" width="2" height="3" rx="1" fill="#828282"/>
<rect x="83" y="85" width="2" height="3" rx="1" fill="#828282"/>
<rect x="93" y="85" width="2" height="3" rx="1" fill="#828282"/>
<rect x="93" y="75" width="2" height="3" rx="1" fill="#828282"/>
<path d="M26.2929 69.2929C25.9024 69.6834 25.9024 70.3166 26.2929 70.7071C26.6834 71.0976 27.3166 71.0976 27.7071 70.7071L26.2929 69.2929ZM72.5929 63.3818L71.8383 64.038L72.5929 63.3818ZM62.4908 55.2356L61.7362 54.5794L62.4908 55.2356ZM44.9112 55.0456L45.6497 54.3714L44.9112 55.0456ZM27.7071 70.7071L42.7272 55.6871L41.3129 54.2728L26.2929 69.2929L27.7071 70.7071ZM44.1727 55.7199L51.7481 64.0167L53.2251 62.6682L45.6497 54.3714L44.1727 55.7199ZM56.2274 63.9625L63.2454 55.8918L61.7362 54.5794L54.7182 62.6501L56.2274 63.9625ZM64.7546 55.8918L71.8383 64.038L73.3475 62.7256L66.2638 54.5794L64.7546 55.8918ZM76.2234 64.1908L98.2071 42.2071L96.7929 40.7929L74.8092 62.7766L76.2234 64.1908ZM71.8383 64.038C72.9794 65.3503 74.9937 65.4205 76.2234 64.1908L74.8092 62.7766C74.3993 63.1865 73.7279 63.1631 73.3475 62.7256L71.8383 64.038ZM63.2454 55.8918C63.644 55.4333 64.356 55.4333 64.7546 55.8918L66.2638 54.5794C65.0679 53.2041 62.9321 53.2041 61.7362 54.5794L63.2454 55.8918ZM51.7481 64.0167C52.9573 65.3411 55.0506 65.3157 56.2274 63.9625L54.7182 62.6501C54.3259 63.1012 53.6282 63.1097 53.2251 62.6682L51.7481 64.0167ZM42.7272 55.6871C43.1303 55.2839 43.7883 55.2989 44.1727 55.7199L45.6497 54.3714C44.4965 53.1083 42.5223 53.0635 41.3129 54.2728L42.7272 55.6871Z" fill="#444444"/>
<path d="M98 50V41H89" stroke="#444444" stroke-width="2" stroke-linecap="round"/>
</svg>
