<svg width="128" height="128" viewBox="0 0 128 128" fill="none" xmlns="http://www.w3.org/2000/svg">
<rect x="90" y="36" width="10" height="2" rx="1" fill="#4F4F4F"/>
<rect x="78" y="36" width="10" height="2" rx="1" fill="#4F4F4F"/>
<rect x="66" y="36" width="10" height="2" rx="1" fill="#4F4F4F"/>
<rect x="54" y="36" width="10" height="2" rx="1" fill="#4F4F4F"/>
<rect x="42" y="36" width="10" height="2" rx="1" fill="#4F4F4F"/>
<rect x="65" y="49" width="36" height="2" rx="1" fill="#4F4F4F"/>
<rect x="65" y="54" width="27" height="2" rx="1" fill="#4F4F4F"/>
<rect x="65" y="59" width="32" height="2" rx="1" fill="#4F4F4F"/>
<rect x="65" y="64" width="24" height="2" rx="1" fill="#4F4F4F"/>
<rect x="24" y="46" width="24" height="24" rx="4" fill="#F2F2F2" stroke="#828282" stroke-width="2" stroke-linecap="round" stroke-linejoin="round" stroke-dasharray="5 5"/>
<rect x="28.3846" y="49" width="23.4977" height="1.95814" rx="0.97907" transform="rotate(45 28.3846 49)" fill="#BDBDBD"/>
<rect x="45" y="50.3846" width="23.4977" height="1.95814" rx="0.97907" transform="rotate(135 45 50.3846)" fill="#BDBDBD"/>
<rect x="23" y="78" width="36" height="20" rx="2" fill="#F2F2F2" stroke="#828282" stroke-width="2" stroke-linecap="round" stroke-linejoin="round"/>
<rect x="65" y="78" width="36" height="20" rx="2" fill="#F2F2F2" stroke="#828282" stroke-width="2" stroke-linecap="round" stroke-linejoin="round"/>
<circle cx="26" cy="37" r="2" fill="#4F4F4F"/>
</svg>
