<svg width="128" height="128" viewBox="0 0 128 128" fill="none" xmlns="http://www.w3.org/2000/svg">
<rect x="17" y="30" width="94" height="68" rx="3" fill="url(#paint0_linear)" stroke="#444444" stroke-width="2"/>
<rect x="68" y="51" width="20" height="2" rx="1" fill="#4F4F4F"/>
<rect x="24" y="76" width="20" height="2" rx="1" fill="#4F4F4F"/>
<rect x="95" y="37" width="10" height="2" rx="1" fill="#4F4F4F"/>
<rect x="83" y="37" width="10" height="2" rx="1" fill="#4F4F4F"/>
<rect x="71" y="37" width="10" height="2" rx="1" fill="#4F4F4F"/>
<rect x="59" y="37" width="10" height="2" rx="1" fill="#4F4F4F"/>
<rect x="47" y="37" width="10" height="2" rx="1" fill="#4F4F4F"/>
<rect x="68" y="46" width="36" height="2" rx="1" fill="#4F4F4F"/>
<rect x="24" y="47" width="24" height="24" rx="4" fill="url(#paint1_linear)" stroke="#828282" stroke-width="2" stroke-linecap="round" stroke-linejoin="round" stroke-dasharray="5 5"/>
<rect x="28.3846" y="50" width="23.4977" height="1.95814" rx="0.97907" transform="rotate(45 28.3846 50)" fill="#BDBDBD"/>
<rect x="45" y="51.3846" width="23.4977" height="1.95814" rx="0.97907" transform="rotate(135 45 51.3846)" fill="#BDBDBD"/>
<rect x="68" y="71" width="36" height="8" rx="2" fill="url(#paint2_linear)"/>
<rect x="69" y="58" width="34" height="8" rx="1" fill="white" stroke="#828282" stroke-width="2"/>
<circle cx="26" cy="38" r="2" fill="#4F4F4F"/>
<defs>
<linearGradient id="paint0_linear" x1="64" y1="99" x2="64" y2="29" gradientUnits="userSpaceOnUse">
<stop stop-color="#E5E5E5"/>
<stop offset="1" stop-color="#FFFDFD"/>
</linearGradient>
<linearGradient id="paint1_linear" x1="36" y1="47" x2="36" y2="71" gradientUnits="userSpaceOnUse">
<stop stop-color="#FFFDFD"/>
<stop offset="1" stop-color="#E5E5E5"/>
</linearGradient>
<linearGradient id="paint2_linear" x1="86" y1="79" x2="86" y2="70.5" gradientUnits="userSpaceOnUse">
<stop offset="0.0275862" stop-color="#BDBDBD"/>
<stop offset="1" stop-color="#A0A0A0"/>
</linearGradient>
</defs>
</svg>
