<?xml version="1.0" standalone="no"?>
<!DOCTYPE svg PUBLIC "-//W3C//DTD SVG 20010904//EN"
 "http://www.w3.org/TR/2001/REC-SVG-20010904/DTD/svg10.dtd">
<svg version="1.0" xmlns="http://www.w3.org/2000/svg"
 width="320.000000pt" height="320.000000pt" viewBox="0 0 320.000000 320.000000"
 preserveAspectRatio="xMidYMid meet">
<metadata>
Created by potrace 1.11, written by Peter Selinger 2001-2013
</metadata>
<g transform="translate(0.000000,320.000000) scale(0.100000,-0.100000)"
fill="#000000" stroke="none">
<path d="M400 3100 l0 -100 -100 0 -100 0 0 -1200 0 -1200 100 0 100 0 0 -300
0 -300 1200 0 1200 0 0 300 0 300 100 0 100 0 0 1200 0 1200 -100 0 -100 0 0
100 0 100 -1200 0 -1200 0 0 -100z m2400 -1300 l0 -1200 -1200 0 -1200 0 0
1200 0 1200 1200 0 1200 0 0 -1200z m-200 -1500 l0 -100 -1000 0 -1000 0 0
100 0 100 1000 0 1000 0 0 -100z"/>
<path d="M600 2000 l0 -800 1000 0 1000 0 0 800 0 800 -1000 0 -1000 0 0 -800z
m1800 300 l0 -300 -800 0 -800 0 0 300 0 300 800 0 800 0 0 -300z m0 -800 l0
-100 -800 0 -800 0 0 100 0 100 800 0 800 0 0 -100z"/>
<path d="M600 900 l0 -100 100 0 100 0 0 100 0 100 -100 0 -100 0 0 -100z"/>
<path d="M1800 900 l0 -100 400 0 400 0 0 100 0 100 -400 0 -400 0 0 -100z"/>
</g>
</svg>
