<?xml version="1.0" standalone="no"?>
<!DOCTYPE svg PUBLIC "-//W3C//DTD SVG 20010904//EN"
 "http://www.w3.org/TR/2001/REC-SVG-20010904/DTD/svg10.dtd">
<svg version="1.0" xmlns="http://www.w3.org/2000/svg"
 width="227.000000pt" height="227.000000pt" viewBox="0 0 227.000000 227.000000"
 preserveAspectRatio="xMidYMid meet">
<metadata>
Created by potrace 1.11, written by Peter Selinger 2001-2013
</metadata>
<g transform="translate(0.000000,227.000000) scale(0.100000,-0.100000)"
fill="#000000" stroke="none">
<path d="M410 2230 l0 -40 -40 0 -40 0 0 -40 0 -40 -40 0 -40 0 0 -885 0 -885
40 0 40 0 0 -170 0 -170 800 0 800 0 0 170 0 170 40 0 40 0 0 885 0 885 -40 0
-40 0 0 40 0 40 -40 0 -40 0 0 40 0 40 -720 0 -720 0 0 -40z m1440 -80 l0 -40
40 0 40 0 0 -885 0 -885 -800 0 -800 0 0 885 0 885 40 0 40 0 0 40 0 40 720 0
720 0 0 -40z m0 -1980 l0 -90 -720 0 -720 0 0 90 0 90 720 0 720 0 0 -90z"/>
<path d="M550 2030 l0 -40 -40 0 -40 0 0 -480 0 -480 40 0 40 0 0 -40 0 -40
585 0 585 0 0 40 c0 39 1 40 35 40 l35 0 0 480 0 480 -35 0 c-34 0 -35 1 -35
40 l0 40 -585 0 -585 0 0 -40z m1160 -520 l0 -480 -580 0 -580 0 0 480 0 480
580 0 580 0 0 -480z"/>
<path d="M820 1710 l0 -80 40 0 40 0 0 80 0 80 -40 0 -40 0 0 -80z"/>
<path d="M1300 1710 l0 -80 40 0 40 0 0 80 0 80 -40 0 -40 0 0 -80z"/>
<path d="M1090 1615 l0 -165 -30 0 c-28 0 -30 -2 -30 -40 l0 -40 70 0 70 0 0
205 0 205 -40 0 -40 0 0 -165z"/>
<path d="M880 1280 l0 -40 40 0 40 0 0 -40 0 -40 135 0 135 0 0 40 0 40 40 0
40 0 0 40 0 40 -40 0 -40 0 0 -40 0 -40 -135 0 -135 0 0 40 0 40 -40 0 -40 0
0 -40z"/>
<path d="M1290 650 l0 -40 215 0 215 0 0 40 0 40 -215 0 -215 0 0 -40z"/>
<path d="M480 580 l0 -40 70 0 70 0 0 40 0 40 -70 0 -70 0 0 -40z"/>
</g>
</svg>
